<svg data-v-423bf9ae="" xmlns="http://www.w3.org/2000/svg" viewBox="0 0 111.52575770639992 60" class="font"><!----><!----><defs data-v-423bf9ae=""><linearGradient data-v-423bf9ae="" gradientTransform="rotate(25)" id="a1970173-dc1d-4e9c-80ea-ec9bf393511b" x1="0%" y1="0%" x2="100%" y2="0%"><stop data-v-423bf9ae="" offset="0%" style="stop-color: rgb(106, 79, 76); stop-opacity: 1;"></stop><stop data-v-423bf9ae="" offset="100%" style="stop-color: rgb(160, 162, 155); stop-opacity: 1;"></stop></linearGradient></defs><g data-v-423bf9ae="" id="61e9fd19-18d0-4809-a3a4-bf2a3158778c" fill="url(#a1970173-dc1d-4e9c-80ea-ec9bf393511b)" transform="matrix(6.185565915646637,0,0,6.185565915646637,-0.8659781024867002,-20.7216452275147)"><path d="M7.59 3.35L9.04 3.35Q8.51 4.89 8.03 6.20Q7.55 7.50 7.08 8.68Q6.62 9.86 6.17 10.93Q5.71 12.00 5.24 13.05L5.24 13.05L3.96 13.05Q3.49 12.00 3.03 10.93Q2.58 9.86 2.11 8.68Q1.64 7.50 1.15 6.20Q0.66 4.89 0.14 3.35L0.14 3.35L1.64 3.35Q2.39 5.56 3.12 7.60Q3.85 9.65 4.62 11.44L4.62 11.44Q5.39 9.66 6.12 7.61Q6.85 5.56 7.59 3.35L7.59 3.35ZM18.17 13.05L17.04 13.05Q16.73 12.53 16.33 11.89Q15.93 11.24 15.47 10.55Q15.01 9.86 14.51 9.14Q14.01 8.43 13.52 7.76Q13.03 7.10 12.57 6.51Q12.11 5.92 11.72 5.47L11.72 5.47L11.72 13.05L10.39 13.05L10.39 3.35L11.47 3.35Q12.12 4.05 12.87 4.98Q13.62 5.91 14.36 6.89Q15.09 7.88 15.74 8.83Q16.39 9.79 16.84 10.53L16.84 10.53L16.84 3.35L18.17 3.35L18.17 13.05Z"></path></g><!----><!----></svg>