<svg data-v-423bf9ae="" xmlns="http://www.w3.org/2000/svg" viewBox="0 0 494.239613959682 60" class="font"><!----><!----><defs data-v-423bf9ae=""><linearGradient data-v-423bf9ae="" gradientTransform="rotate(25)" id="3c7b81cd-57d7-496a-ae7d-fc91ed0e0e48" x1="0%" y1="0%" x2="100%" y2="0%"><stop data-v-423bf9ae="" offset="0%" style="stop-color: rgb(100, 91, 78); stop-opacity: 1;"></stop><stop data-v-423bf9ae="" offset="100%" style="stop-color: rgb(179, 153, 132); stop-opacity: 1;"></stop></linearGradient></defs><g data-v-423bf9ae="" id="f2762f36-85aa-45a6-98d3-abf6f6c04077" fill="url(#3c7b81cd-57d7-496a-ae7d-fc91ed0e0e48)" transform="matrix(4.608294768854844,0,0,4.608294768854844,-1.2903162869998823,-21.47465291969359)"><path d="M9.02 5.08L7.60 5.08L4.66 13.44L4.63 13.44L1.69 5.08L0.28 5.08L3.78 14.88L5.52 14.88ZM15.95 13.66L11.77 13.66L11.77 11.86L15.95 11.86L15.95 8.75L14.32 7.81L12.04 7.81L10.42 8.75L10.42 13.94L12.04 14.88L15.95 14.88ZM11.77 9.03L14.59 9.03L14.59 10.64L11.77 10.64ZM19.81 14.88L21.22 14.88L21.22 13.66L19.54 13.66L19.54 4.66L18.19 4.66L18.19 13.94ZM22.55 6.16L24.05 6.16L24.05 4.66L22.55 4.66ZM23.98 7.88L22.62 7.88L22.62 16.46L20.94 16.46L20.94 17.68L22.36 17.68L23.98 16.74ZM27.58 4.66L26.22 4.66L26.22 14.88L27.58 14.88L27.58 13.22L28.60 12.01L30.87 14.88L32.54 14.88L29.41 11.05L32.12 7.88L30.49 7.88L27.61 11.37L27.58 11.37ZM39.61 14.01L39.61 8.75L37.98 7.81L35.28 7.81L33.66 8.75L33.66 14.01L35.28 14.95L37.98 14.95ZM35.01 9.03L38.25 9.03L38.25 13.73L35.01 13.73ZM47.03 7.48L47.05 7.48L52.12 14.88L53.40 14.88L53.40 5.08L52.00 5.08L52.00 12.49L51.97 12.49L46.90 5.08L45.63 5.08L45.63 14.88L47.03 14.88ZM56.85 12.01L59.67 12.01L59.67 13.73L56.85 13.73ZM57.12 14.95L58.67 14.95L59.67 14.38L60.66 14.95L61.03 14.95L61.03 8.82L59.40 7.88L56.20 7.88L56.20 9.10L59.67 9.10L59.67 10.79L57.12 10.79L55.50 11.73L55.50 14.01ZM63.27 14.01L64.89 14.95L66.86 14.95L67.86 14.38L68.19 14.95L69.22 14.95L69.22 7.88L67.86 7.88L67.86 13.73L64.62 13.73L64.62 7.88L63.27 7.88ZM80.88 8.75L79.25 7.81L77.84 7.81L76.52 8.57L75.22 7.81L73.81 7.81L72.81 8.39L72.48 7.81L71.46 7.81L71.46 14.88L72.81 14.88L72.81 9.03L75.49 9.03L75.49 14.88L76.85 14.88L76.85 9.03L79.52 9.03L79.52 14.88L80.88 14.88ZM89.07 14.01L89.07 8.75L87.44 7.81L84.74 7.81L83.12 8.75L83.12 14.01L84.74 14.95L87.44 14.95ZM84.48 9.03L87.71 9.03L87.71 13.73L84.48 13.73ZM91.80 7.88L90.47 7.88L93.06 14.88L94.70 14.88L97.29 7.88L95.96 7.88L93.88 13.59L93.86 13.59ZM100.04 7.88L98.69 7.88L98.69 14.88L100.04 14.88ZM98.62 6.16L100.11 6.16L100.11 4.66L98.62 4.66ZM103.64 9.10L107.53 9.10L107.53 7.88L103.91 7.88L102.28 8.82L102.28 13.94L103.91 14.88L107.53 14.88L107.53 13.66L103.64 13.66Z"></path></g><!----><!----></svg>